<?xml version="1.0" encoding="utf-8"?>
<!-- Generator: Adobe Illustrator 19.2.0, SVG Export Plug-In . SVG Version: 6.00 Build 0)  -->
<svg version="1.1" id="Layer_1" xmlns="http://www.w3.org/2000/svg" xmlns:xlink="http://www.w3.org/1999/xlink" x="0px" y="0px"
	 viewBox="0 0 300 60" enable-background="new 0 0 300 60" xml:space="preserve">
<g>
	<path fill="#FFDE11" d="M214,3h7.3l-6.3,18.2c-0.4,1.1-0.3,1.8,1,1.7h9.1c1.2-0.1,2.1-0.7,2.6-1.9L233.9,3h7.8l-8.1,23.4
		c-0.8,2.3-1.6,3.2-5.2,3.2h-17.6c-4,0-5.1-2.3-3.8-6.5L214,3z"/>
	<polygon fill="#FFDE11" points="184.1,3 191.5,3 188.2,12.5 200.5,12.5 203.9,3 211.9,3 202.6,29.5 194.6,29.5 198.3,18.9 
		185.9,18.9 182.3,29.5 174.9,29.5 	"/>
	<path fill="#FFDE11" d="M158.1,3h21.4l-2.2,6.3h-14.4c-1.7,0.1-3.1,0.6-3.7,2l-3.6,10.6c-0.2,0.7,0,1.2,1.4,1.1h15.7l-2.3,6.6
		h-18.8c-3.5-0.1-4.8-2.1-3.4-6.2l6-17.5C154.7,4.1,155.9,3.1,158.1,3z"/>
	<path fill="#FFDE11" d="M128.5,3h22.4l-2.1,6.3h-14.4c-2.5,0-3.2,0.9-3.2,3.2h12.6c3.9,0.1,5.8,1.7,4.7,5.6l-3.2,9.2
		c-1,1.9-2,2.1-4.4,2.1h-21.3l2.2-6.4h16c0.7,0,0.9-0.3,1.3-0.7c1.4-1.4,2.4-3.4-0.7-3.2H128c-4.5,0-6.1-2.4-5.1-6l2.7-7.9
		C126.1,3.5,127.2,2.9,128.5,3z"/>
	<polygon fill="#FFDE11" points="66,3 73.4,3 70.1,12.5 82.4,12.5 85.7,3 93.8,3 84.6,29.5 76.5,29.5 80.2,18.9 67.9,18.9 
		64.2,29.5 56.8,29.5 	"/>
	<path fill="#FFDE11" d="M54.4,29.5H34c-4,0.1-6-2.1-4.2-7.6l2.3-6.5c0.7-1.7,2.1-2.6,4.2-2.8H53l0.8-2.4C54.1,9.5,53.8,9,53,9H34.3
		L36.4,3h19.9c4.8,0.1,6.3,2.5,4.9,7L54.4,29.5z M37.7,20.8l-0.5,1.4c-0.3,0.8,0,1.1,0.8,1.1h11l1.6-4.3h-10
		C39.2,18.9,38.3,19.6,37.7,20.8z"/>
	<polygon fill="#FFDE11" points="12,3 31.9,3 29.6,9.4 17,9.4 15.9,12.4 28.5,12.4 26.2,18.9 13.6,18.9 9.8,29.5 2.6,29.5 	"/>
	<path fill="#FFDE11" d="M97.9,3h19.8c4.3,0,5.9,2.1,4.8,5.8l-2.7,7.5c-0.6,1.4-1.5,2.4-2.8,2.5c1,0.8,1.3,1.9,0.7,3.3l-2.6,7.4
		h-6.9l3-8.6c0.3-1.2,0-2-1.4-2H99.5l-3.8,10.6h-7.2L97.9,3z M113.4,9.4h-10.7l-1,3h11.7C114.9,10.5,114.9,9.5,113.4,9.4z"/>
	<path fill="#FFDE11" d="M247.7,3h7.3l-6.4,19.1c-0.2,0.6,0.1,0.9,0.8,0.9h15.2c0-0.1,0.1-0.3,0.1-0.4l5.7-16.1
		c0.8-2.6,1.4-3.4,5.4-3.4h16.6c4.1-0.1,6.1,2.1,4.3,7.6l-3.3,9.3h-20.3l-0.8,2.4c-0.2,0.8,0,1.2,0.8,1.2h19l-2.2,6.1h-20.3
		c-3.4,0-5.2-1.2-5.5-3.4l-1.1,3.3h-24.4L247.7,3z M287.2,9.4H279c-1.3,0-2.3,0.4-2.6,1.4l-0.9,2.5h12.6l0.8-2.3
		C289.2,10,288.6,9.4,287.2,9.4z"/>
	<path fill="#FFDE11" d="M166.8,32.3h35.1c4-0.1,6,1.6,4.4,6L200,56h-6.3l5.6-16.5c0.3-0.9,0-1.4-1-1.3h-7.4c-1.6,0.1-2.5,0.8-3,2.2
		l-5.3,15.6H176l5.6-16.5c0.3-0.9,0-1.4-1-1.3h-7.4c-1.6,0.1-2.5,0.8-3,2.2l-5.4,15.6h-6.6L166.8,32.3z"/>
	<path fill="#FFDE11" d="M154.8,55.9h-18.2c-3.6,0.1-5.4-1.9-3.8-6.8l2-5.8c0.6-1.6,1.8-2.4,3.7-2.5h15l0.8-2.1
		c0.2-0.7,0-1.1-0.8-1.1h-16.7l1.9-5.4h17.8c4.3,0.1,5.7,2.2,4.4,6.3L154.8,55.9z M140,48.1l-0.5,1.2c-0.3,0.7,0,1,0.7,1h9.8
		l1.5-3.8h-8.9C141.3,46.5,140.5,47.1,140,48.1z"/>
	<polygon fill="#FFDE11" points="84.1,32.3 108.8,32.3 106.8,38 98,38 91.7,55.9 85.2,55.9 91.6,38 82,38 	"/>
	<path fill="#FFDE11" d="M205.2,54.1h30.3l-0.1,0l-4.4,1.8h-26.4L205.2,54.1z M206.5,50.4h38l-4.5,1.8h-34.2L206.5,50.4z
		 M207.8,46.8h45.8l-4.5,1.8h-41.9L207.8,46.8z M209.1,43.2h53.6l-4.5,1.8h-49.7L209.1,43.2z M210.4,39.5h61.3l-4.5,1.8h-57.5
		L210.4,39.5z M211.7,35.9h69.1l-4.5,1.8H211L211.7,35.9z M213,32.3h76.8l-4.5,1.8h-73L213,32.3z"/>
	<polygon fill="#FFDE11" points="2.6,32.3 80.4,32.3 79.7,34.1 6.5,34.1 	"/>
	<polygon fill="#FFDE11" points="9.1,35.9 79.1,35.9 78.4,37.7 13,37.7 	"/>
	<polygon fill="#FFDE11" points="15.6,39.5 77.8,39.5 77.1,41.4 19.5,41.4 	"/>
	<polygon fill="#FFDE11" points="22.1,43.2 76.5,43.2 75.8,45 26,45 	"/>
	<polygon fill="#FFDE11" points="28.6,46.8 75.2,46.8 74.5,48.6 32.5,48.6 	"/>
	<polygon fill="#FFDE11" points="35.1,50.4 73.8,50.4 73.2,52.3 39,52.3 	"/>
	<polygon fill="#FFDE11" points="41.6,54.1 72.5,54.1 71.9,55.9 45.5,55.9 	"/>
	<path fill="#FFDE11" d="M116.2,32.3h14.8c3.7-0.1,5.5,1.9,3.9,6.8l-3,8.3h-18.1l-0.8,2.1c-0.2,0.7,0,1.1,0.8,1.1h17l-1.9,5.4h-18.1
		c-4.4-0.1-5.8-2.2-4.5-6.3l5.1-14.4C112.1,32.9,112.6,32.2,116.2,32.3z M126.3,38H119c-1.2,0-2,0.3-2.4,1.3l-0.8,2.3h11.2l0.7-2
		C128.1,38.5,127.6,38,126.3,38z"/>
</g>
</svg>
